<svg width="148" height="34" viewBox="0 0 148 34" fill="none" xmlns="http://www.w3.org/2000/svg">
<path d="M0 2.92619C0 0.942519 1.93225 -0.465461 3.8193 0.143169L25.2214 7.04601C26.1204 7.33594 26.8239 8.04265 27.11 8.94321L33.8606 30.1901C34.4597 32.0758 33.053 34 31.0753 34H2.92259C1.30849 34 0 32.6909 0 31.0759V2.92619Z" fill="#18181B"/>
<path d="M53.5846 23.3986C53.4544 23.3986 53.4342 23.2114 53.5613 23.1835L56.2855 22.5868C56.4525 22.5502 56.5794 22.4141 56.604 22.2449L56.6065 22.2278C56.6603 21.859 57.1223 21.7236 57.3666 22.0052L59.5479 24.5189L62.5365 28.184C62.8029 28.5106 62.5705 29 62.149 29H58.2075C58.0605 29 57.921 28.9353 57.826 28.8232L55.384 25.9408L53.6743 23.4458C53.6541 23.4163 53.6205 23.3986 53.5846 23.3986ZM63.1594 16.3321C63.1594 18.7881 62.6885 20.86 61.7467 22.5476C60.8048 24.228 59.5337 25.5027 57.9333 26.3716C56.3329 27.2334 54.5484 27.6643 52.5797 27.6643C50.5969 27.6643 48.8053 27.2298 47.2049 26.3609C45.6115 25.4847 44.344 24.2065 43.4021 22.526C42.4674 20.8384 42 18.7738 42 16.3321C42 13.8761 42.4674 11.8079 43.4021 10.1275C44.344 8.43986 45.6115 7.16517 47.2049 6.30341C48.8053 5.43447 50.5969 5 52.5797 5C54.5484 5 56.3329 5.43447 57.9333 6.30341C59.5337 7.16517 60.8048 8.43986 61.7467 10.1275C62.6885 11.8079 63.1594 13.8761 63.1594 16.3321ZM57.0835 16.3321C57.0835 15.0108 56.91 13.8977 56.563 12.9928C56.2231 12.0808 55.7168 11.3914 55.0441 10.9246C54.3784 10.4506 53.557 10.2136 52.5797 10.2136C51.6025 10.2136 50.7775 10.4506 50.1047 10.9246C49.4391 11.3914 48.9328 12.0808 48.5858 12.9928C48.2459 13.8977 48.0759 15.0108 48.0759 16.3321C48.0759 17.6535 48.2459 18.7702 48.5858 19.6822C48.9328 20.5871 49.4391 21.2765 50.1047 21.7504C50.7775 22.2172 51.6025 22.4506 52.5797 22.4506C53.557 22.4506 54.3784 22.2172 55.0441 21.7504C55.7168 21.2765 56.2231 20.5871 56.563 19.6822C56.91 18.7702 57.0835 17.6535 57.0835 16.3321Z" fill="#18181B"/>
<path d="M77.1841 20.1239V11.3169C77.1841 11.0407 77.408 10.8169 77.6841 10.8169H82.5476C82.8237 10.8169 83.0476 11.0407 83.0476 11.3169V26.8627C83.0476 27.1388 82.8237 27.3627 82.5476 27.3627H77.9815C77.7054 27.3627 77.4815 27.1388 77.4815 26.8627V24.3161C77.4815 24.2615 77.4373 24.2172 77.3827 24.2172C77.3402 24.2172 77.3025 24.2445 77.2885 24.2846C76.9309 25.3081 76.319 26.1115 75.4527 26.6948C74.5675 27.2837 73.5159 27.5781 72.2979 27.5781C71.1578 27.5781 70.1593 27.3124 69.3025 26.781C68.4527 26.2496 67.7906 25.5171 67.3161 24.5835C66.8487 23.6499 66.6115 22.5799 66.6044 21.3734V11.3169C66.6044 11.0407 66.8283 10.8169 67.1044 10.8169H71.9679C72.244 10.8169 72.4679 11.0407 72.4679 11.3169V20.1239C72.4749 20.9425 72.6803 21.5853 73.084 22.0521C73.4947 22.5189 74.0683 22.7522 74.8048 22.7522C75.2934 22.7522 75.7147 22.6481 76.0688 22.4399C76.43 22.2244 76.7061 21.9228 76.8973 21.535C77.0956 21.14 77.1912 20.6697 77.1841 20.1239Z" fill="#18181B"/>
<path d="M91.1743 27.6212C90.1333 27.6212 89.2127 27.4488 88.4125 27.1041C87.6194 26.7522 86.9962 26.2208 86.543 25.5099C86.0898 24.7989 85.8632 23.8941 85.8632 22.7953C85.8632 21.8905 86.0155 21.1185 86.32 20.4794C86.6245 19.833 87.0494 19.3052 87.5946 18.8959C88.1399 18.4865 88.7737 18.1741 89.496 17.9587C90.2254 17.7433 91.0114 17.6032 91.8541 17.5386C92.7676 17.4668 93.5006 17.3806 94.0529 17.2801C94.6124 17.1724 95.016 17.0251 95.2639 16.8384C95.5117 16.6445 95.6356 16.3896 95.6356 16.0736V16.0305C95.6356 15.5996 95.4728 15.2693 95.147 15.0395C94.8213 14.8097 94.4035 14.6948 93.8936 14.6948C93.3342 14.6948 92.8774 14.8205 92.5233 15.0718C92.2804 15.2428 92.1051 15.4789 91.9976 15.7801C91.9136 16.0151 91.7108 16.2029 91.4613 16.2029H87.037C86.747 16.2029 86.5157 15.9564 86.5621 15.6701C86.6921 14.8681 86.9867 14.1193 87.4459 13.4237C88.0124 12.5691 88.8374 11.8869 89.9209 11.377C91.0044 10.86 92.3569 10.6014 93.9786 10.6014C95.147 10.6014 96.1951 10.7415 97.1227 11.0215C98.0504 11.2944 98.84 11.6786 99.4915 12.1741C100.143 12.6625 100.639 13.237 100.979 13.8977C101.326 14.5512 101.499 15.2621 101.499 16.0305V26.8627C101.499 27.1388 101.275 27.3627 100.999 27.3627H96.518C96.2419 27.3627 96.018 27.1388 96.018 26.8627V25.1154C96.018 25.0715 95.9824 25.0359 95.9385 25.0359C95.909 25.0359 95.882 25.0523 95.868 25.0783C95.5466 25.6764 95.1575 26.1613 94.7009 26.5332C94.2406 26.9138 93.713 27.1903 93.1182 27.3627C92.5304 27.535 91.8825 27.6212 91.1743 27.6212ZM93.0863 23.8725C93.5324 23.8725 93.9502 23.7792 94.3397 23.5925C94.7363 23.4057 95.0585 23.1364 95.3063 22.7846C95.5542 22.4327 95.6781 22.0054 95.6781 21.5027V20.6558C95.6781 20.4026 95.4197 20.2288 95.1789 20.307C95.0089 20.3645 94.8248 20.4183 94.6265 20.4686C94.4353 20.5189 94.23 20.5655 94.0104 20.6086C93.798 20.6517 93.5749 20.6912 93.3412 20.7271C92.888 20.7989 92.5163 20.9174 92.2259 21.0826C91.9426 21.2406 91.7302 21.4381 91.5886 21.675C91.454 21.9048 91.3868 22.1634 91.3868 22.4506C91.3868 22.9102 91.5461 23.2621 91.8648 23.5063C92.1834 23.7504 92.5906 23.8725 93.0863 23.8725Z" fill="#18181B"/>
<path d="M105.399 27.3627C105.123 27.3627 104.899 27.1388 104.899 26.8627V11.3169C104.899 11.0407 105.123 10.8169 105.399 10.8169H110.092C110.369 10.8169 110.592 11.0407 110.592 11.3169V13.8666C110.592 13.9195 110.635 13.9623 110.688 13.9623C110.732 13.9623 110.77 13.9325 110.781 13.8902C111.079 12.7637 111.544 11.9368 112.175 11.4093C112.827 10.8707 113.588 10.6014 114.459 10.6014C114.714 10.6014 114.965 10.623 115.213 10.6661C115.341 10.6841 115.466 10.7066 115.589 10.7337C115.803 10.781 115.946 10.9775 115.946 11.1971V15.199C115.946 15.5427 115.604 15.791 115.265 15.7319C115.142 15.7103 115.011 15.6913 114.873 15.675C114.448 15.6248 114.084 15.5996 113.779 15.5996C113.206 15.5996 112.689 15.7325 112.228 15.9982C111.775 16.2567 111.417 16.623 111.155 17.0969C110.893 17.5637 110.762 18.1131 110.762 18.7451V26.8627C110.762 27.1388 110.539 27.3627 110.262 27.3627H105.399Z" fill="#18181B"/>
<path d="M128.368 10.8175C128.644 10.8172 128.869 11.0411 128.869 11.3175V14.6041C128.869 14.8885 128.632 15.1157 128.348 15.1037L120.928 14.7905C120.661 14.7792 120.45 14.5589 120.45 14.2909V11.327C120.45 11.0511 120.673 10.8274 120.949 10.827L128.368 10.8175ZM120.201 7.35278C120.201 7.07664 120.425 6.85278 120.701 6.85278H125.564C125.841 6.85278 126.064 7.07664 126.064 7.35278V22.0413C126.064 22.2711 126.103 22.465 126.181 22.623C126.259 22.7738 126.38 22.8887 126.542 22.9677C126.705 23.0395 126.914 23.0754 127.169 23.0754C127.346 23.0754 127.552 23.0539 127.785 23.0108C127.791 23.0097 127.797 23.0087 127.803 23.0077C128.084 22.9571 128.364 23.1372 128.421 23.417L129.075 26.6358C129.127 26.889 128.977 27.1394 128.727 27.2045C128.53 27.2557 128.301 27.312 128.04 27.3734C127.559 27.4883 126.985 27.5637 126.319 27.5996C124.974 27.6715 123.844 27.5314 122.931 27.1795C122.017 26.8205 121.33 26.2567 120.87 25.4883C120.41 24.7199 120.187 23.7576 120.201 22.6014V7.35278Z" fill="#18181B"/>
<path d="M139.545 27.6643C137.774 27.6643 136.259 27.3088 134.998 26.5978C133.738 25.8797 132.771 24.8815 132.099 23.6032C131.426 22.3178 131.089 20.8276 131.089 19.1329C131.089 17.4381 131.426 15.9515 132.099 14.6732C132.771 13.3878 133.738 12.3896 134.998 11.6786C136.259 10.9605 137.774 10.6014 139.545 10.6014C141.315 10.6014 142.831 10.9605 144.091 11.6786C145.352 12.3896 146.318 13.3878 146.991 14.6732C147.664 15.9515 148 17.4381 148 19.1329C148 20.8276 147.664 22.3178 146.991 23.6032C146.318 24.8815 145.352 25.8797 144.091 26.5978C142.831 27.3088 141.315 27.6643 139.545 27.6643ZM139.587 23.2693C140.083 23.2693 140.511 23.1005 140.873 22.763C141.234 22.4255 141.513 21.9443 141.712 21.3196C141.91 20.6948 142.009 19.9515 142.009 19.0898C142.009 18.2208 141.91 17.4776 141.712 16.86C141.513 16.2352 141.234 15.754 140.873 15.4165C140.511 15.079 140.083 14.9102 139.587 14.9102C139.063 14.9102 138.614 15.079 138.238 15.4165C137.863 15.754 137.576 16.2352 137.378 16.86C137.18 17.4776 137.08 18.2208 137.08 19.0898C137.08 19.9515 137.18 20.6948 137.378 21.3196C137.576 21.9443 137.863 22.4255 138.238 22.763C138.614 23.1005 139.063 23.2693 139.587 23.2693Z" fill="#18181B"/>
</svg>
